<svg width="1852px" height="536px"
 viewBox="0.00 0.00 1852.03 536.00" xmlns="http://www.w3.org/2000/svg" xmlns:xlink="http://www.w3.org/1999/xlink"><g id="graph0" class="graph" transform=" rotate(0) translate(4 532)">
<title>%3</title>
<polygon fill="white" stroke="transparent" points="-4,4 -4,-532 1848.03,-532 1848.03,4 -4,4"/>
<text text-anchor="middle" x="922.01" y="-6.8" font-family="Times,serif" font-size="14.00">BusinessRuleRelationDiagram [2019.12.2]</text>
<g id="clust1" class="cluster">
<title>cluster_warikan.domain.model.amount.types</title>
<polygon fill="lemonchiffon" stroke="#eedd82" stroke-width="2" points="1664.03,-188 1664.03,-358 1836.03,-358 1836.03,-188 1664.03,-188"/>
<text text-anchor="middle" x="1750.03" y="-342.8" font-family="Times,serif" font-size="14.00">amount.types</text>
</g>
<g id="clust2" class="cluster">
<title>cluster_warikan.domain.model.payment_type</title>
<polygon fill="lemonchiffon" stroke="#eedd82" stroke-width="2" points="1526.03,-109 1526.03,-269 1656.03,-269 1656.03,-109 1526.03,-109"/>
<text text-anchor="middle" x="1591.03" y="-253.8" font-family="Times,serif" font-size="14.00">payment_type</text>
</g>
<g id="clust3" class="cluster">
<title>cluster_warikan.domain.model.amount.rate</title>
<polygon fill="lemonchiffon" stroke="#eedd82" stroke-width="2" points="1076.03,-109 1076.03,-439 1448.03,-439 1448.03,-109 1076.03,-109"/>
<text text-anchor="middle" x="1262.03" y="-423.8" font-family="Times,serif" font-size="14.00">amount.rate</text>
</g>
<g id="clust4" class="cluster">
<title>cluster_warikan.domain.model.members</title>
<polygon fill="lemonchiffon" stroke="#eedd82" stroke-width="2" points="787.03,-109 787.03,-358 1014.03,-358 1014.03,-109 787.03,-109"/>
<text text-anchor="middle" x="900.53" y="-342.8" font-family="Times,serif" font-size="14.00">members</text>
</g>
<g id="clust5" class="cluster">
<title>cluster_warikan.domain.model</title>
<polygon fill="lemonchiffon" stroke="#eedd82" stroke-width="2" points="27.03,-277 27.03,-520 329.03,-520 329.03,-277 27.03,-277"/>
<text text-anchor="middle" x="178.03" y="-504.8" font-family="Times,serif" font-size="14.00">warikan.domain.model</text>
</g>
<g id="clust6" class="cluster">
<title>cluster_warikan.domain.model.amount</title>
<polygon fill="lemonchiffon" stroke="#eedd82" stroke-width="2" points="411.03,-30 411.03,-439 779.03,-439 779.03,-30 411.03,-30"/>
<text text-anchor="middle" x="595.03" y="-423.8" font-family="Times,serif" font-size="14.00">amount</text>
</g>
<!-- warikan.domain.model.amount.types.MemberPaymentTypes -->
<g id="node1" class="node">
<title>warikan.domain.model.amount.types.MemberPaymentTypes</title>
<polygon fill="#eedd82" stroke="black" points="1827.61,-328 1672.45,-328 1672.45,-285 1827.61,-285 1827.61,-328"/>
<text text-anchor="middle" x="1750.03" y="-312.8" font-family="Times,serif" font-size="14.00">参加者支払区分リスト</text>
<text text-anchor="middle" x="1750.03" y="-291.8" font-family="Times,serif" font-size="14.00">MemberPaymentTypes</text>
</g>
<!-- warikan.domain.model.amount.types.MemberPaymentType -->
<g id="node2" class="node">
<title>warikan.domain.model.amount.types.MemberPaymentType</title>
<polygon fill="#eedd82" stroke="black" points="1812.24,-239 1671.82,-239 1671.82,-196 1812.24,-196 1812.24,-239"/>
<text text-anchor="middle" x="1742.03" y="-223.8" font-family="Times,serif" font-size="14.00">参加者支払区分</text>
<text text-anchor="middle" x="1742.03" y="-202.8" font-family="Times,serif" font-size="14.00">MemberPaymentType</text>
</g>
<!-- warikan.domain.model.amount.types.MemberPaymentTypes&#45;&gt;warikan.domain.model.amount.types.MemberPaymentType -->
<g id="edge34" class="edge">
<title>warikan.domain.model.amount.types.MemberPaymentTypes&#45;&gt;warikan.domain.model.amount.types.MemberPaymentType</title>
<path fill="none" stroke="black" d="M1748.13,-284.88C1747.16,-274.34 1745.96,-261.29 1744.88,-249.56"/>
<polygon fill="black" stroke="black" points="1748.34,-248.91 1743.94,-239.27 1741.37,-249.55 1748.34,-248.91"/>
</g>
<!-- warikan.domain.model.payment_type.PaymentType -->
<g id="node3" class="node">
<title>warikan.domain.model.payment_type.PaymentType</title>
<polygon fill="#eedd82" stroke="black" points="1631.31,-160 1538.74,-160 1538.74,-117 1631.31,-117 1631.31,-160"/>
<text text-anchor="middle" x="1585.03" y="-144.8" font-family="Times,serif" font-size="14.00">支払区分</text>
<text text-anchor="middle" x="1585.03" y="-123.8" font-family="Times,serif" font-size="14.00">PaymentType</text>
</g>
<!-- warikan.domain.model.amount.types.MemberPaymentTypes&#45;&gt;warikan.domain.model.payment_type.PaymentType -->
<g id="edge36" class="edge">
<title>warikan.domain.model.amount.types.MemberPaymentTypes&#45;&gt;warikan.domain.model.payment_type.PaymentType</title>
<path fill="none" stroke="black" d="M1805.94,-284.87C1811.91,-280.51 1817.2,-275.27 1821.03,-269 1839.78,-238.27 1843.78,-215.9 1821.03,-188 1798.8,-160.75 1703.97,-148.37 1641.49,-143.09"/>
<polygon fill="black" stroke="black" points="1641.62,-139.59 1631.37,-142.27 1641.06,-146.56 1641.62,-139.59"/>
</g>
<!-- warikan.domain.model.payment_type.PaymentTypes -->
<g id="node4" class="node">
<title>warikan.domain.model.payment_type.PaymentTypes</title>
<polygon fill="#eedd82" stroke="black" points="1647.61,-239 1534.45,-239 1534.45,-196 1647.61,-196 1647.61,-239"/>
<text text-anchor="middle" x="1591.03" y="-223.8" font-family="Times,serif" font-size="14.00">支払区分リスト</text>
<text text-anchor="middle" x="1591.03" y="-202.8" font-family="Times,serif" font-size="14.00">PaymentTypes</text>
</g>
<!-- warikan.domain.model.amount.types.MemberPaymentTypes&#45;&gt;warikan.domain.model.payment_type.PaymentTypes -->
<g id="edge37" class="edge">
<title>warikan.domain.model.amount.types.MemberPaymentTypes&#45;&gt;warikan.domain.model.payment_type.PaymentTypes</title>
<path fill="none" stroke="black" d="M1693.34,-285C1682.06,-280.23 1670.48,-274.83 1660.03,-269 1647.73,-262.15 1635.08,-253.44 1624.02,-245.2"/>
<polygon fill="black" stroke="black" points="1625.98,-242.29 1615.9,-239.02 1621.74,-247.86 1625.98,-242.29"/>
</g>
<!-- warikan.domain.model.members.Member -->
<g id="node11" class="node">
<title>warikan.domain.model.members.Member</title>
<polygon fill="#eedd82" stroke="black" points="1003.96,-239 940.1,-239 940.1,-196 1003.96,-196 1003.96,-239"/>
<text text-anchor="middle" x="972.03" y="-223.8" font-family="Times,serif" font-size="14.00">参加者</text>
<text text-anchor="middle" x="972.03" y="-202.8" font-family="Times,serif" font-size="14.00">Member</text>
</g>
<!-- warikan.domain.model.amount.types.MemberPaymentTypes&#45;&gt;warikan.domain.model.members.Member -->
<g id="edge35" class="edge">
<title>warikan.domain.model.amount.types.MemberPaymentTypes&#45;&gt;warikan.domain.model.members.Member</title>
<path fill="none" stroke="black" d="M1672.34,-296.48C1612.28,-289.89 1527,-281.37 1452.03,-277 1409.87,-274.54 1113,-279.22 1072.03,-269 1051.46,-263.87 1030.27,-253.96 1012.73,-244.26"/>
<polygon fill="black" stroke="black" points="1014.33,-241.14 1003.91,-239.23 1010.87,-247.22 1014.33,-241.14"/>
</g>
<!-- warikan.domain.model.amount.types.MemberPaymentType&#45;&gt;warikan.domain.model.payment_type.PaymentType -->
<g id="edge39" class="edge">
<title>warikan.domain.model.amount.types.MemberPaymentType&#45;&gt;warikan.domain.model.payment_type.PaymentType</title>
<path fill="none" stroke="black" d="M1699.95,-195.87C1680.34,-186.25 1656.83,-174.72 1636.2,-164.6"/>
<polygon fill="black" stroke="black" points="1637.46,-161.32 1626.94,-160.06 1634.38,-167.6 1637.46,-161.32"/>
</g>
<!-- warikan.domain.model.amount.types.MemberPaymentType&#45;&gt;warikan.domain.model.members.Member -->
<g id="edge38" class="edge">
<title>warikan.domain.model.amount.types.MemberPaymentType&#45;&gt;warikan.domain.model.members.Member</title>
<path fill="none" stroke="black" d="M1717.01,-239.21C1699.79,-252.44 1675.64,-267.78 1651.03,-273 1635.54,-276.29 1096.51,-276.29 1081.03,-273 1056.89,-267.88 1032.2,-255.97 1012.44,-244.49"/>
<polygon fill="black" stroke="black" points="1014.11,-241.41 1003.73,-239.28 1010.51,-247.42 1014.11,-241.41"/>
</g>
<!-- warikan.domain.model.payment_type.PaymentTypes&#45;&gt;warikan.domain.model.payment_type.PaymentType -->
<g id="edge59" class="edge">
<title>warikan.domain.model.payment_type.PaymentTypes&#45;&gt;warikan.domain.model.payment_type.PaymentType</title>
<path fill="none" stroke="black" d="M1589.42,-195.87C1588.81,-188.01 1588.09,-178.88 1587.43,-170.29"/>
<polygon fill="black" stroke="black" points="1590.9,-169.89 1586.64,-160.19 1583.93,-170.43 1590.9,-169.89"/>
</g>
<!-- warikan.domain.model.amount.rate.PaymentTypeAmountRates -->
<g id="node5" class="node">
<title>warikan.domain.model.amount.rate.PaymentTypeAmountRates</title>
<polygon fill="#eedd82" stroke="black" points="1439.8,-328 1270.25,-328 1270.25,-285 1439.8,-285 1439.8,-328"/>
<text text-anchor="middle" x="1355.03" y="-312.8" font-family="Times,serif" font-size="14.00">支払区分料金割合リスト</text>
<text text-anchor="middle" x="1355.03" y="-291.8" font-family="Times,serif" font-size="14.00">PaymentTypeAmountRates</text>
</g>
<!-- warikan.domain.model.amount.rate.PaymentTypeAmountRates&#45;&gt;warikan.domain.model.amount.types.MemberPaymentTypes -->
<g id="edge17" class="edge">
<title>warikan.domain.model.amount.rate.PaymentTypeAmountRates&#45;&gt;warikan.domain.model.amount.types.MemberPaymentTypes</title>
<path fill="none" stroke="black" d="M1439.89,-306.5C1513.84,-306.5 1587.8,-306.5 1661.75,-306.5"/>
<polygon fill="black" stroke="black" points="1662.19,-310 1672.19,-306.5 1662.19,-303 1662.19,-310"/>
</g>
<!-- warikan.domain.model.amount.rate.PaymentTypeAmountRates&#45;&gt;warikan.domain.model.payment_type.PaymentType -->
<g id="edge18" class="edge">
<title>warikan.domain.model.amount.rate.PaymentTypeAmountRates&#45;&gt;warikan.domain.model.payment_type.PaymentType</title>
<path fill="none" stroke="black" d="M1425.04,-284.92C1433.69,-280.53 1441.96,-275.28 1449.03,-269 1479.49,-241.92 1463.1,-216.71 1492.03,-188 1502.63,-177.47 1515.99,-168.71 1529.26,-161.66"/>
<polygon fill="black" stroke="black" points="1531.03,-164.69 1538.39,-157.06 1527.88,-158.44 1531.03,-164.69"/>
</g>
<!-- warikan.domain.model.amount.rate.PaymentTypeAmountRates&#45;&gt;warikan.domain.model.payment_type.PaymentTypes -->
<g id="edge19" class="edge">
<title>warikan.domain.model.amount.rate.PaymentTypeAmountRates&#45;&gt;warikan.domain.model.payment_type.PaymentTypes</title>
<path fill="none" stroke="black" d="M1433.55,-284.98C1449.73,-280.18 1466.55,-274.77 1482.03,-269 1501.84,-261.61 1523.05,-252.16 1541.45,-243.43"/>
<polygon fill="black" stroke="black" points="1543.01,-246.56 1550.51,-239.08 1539.98,-240.25 1543.01,-246.56"/>
</g>
<!-- warikan.domain.model.amount.rate.AmountRate -->
<g id="node6" class="node">
<title>warikan.domain.model.amount.rate.AmountRate</title>
<polygon fill="#eedd82" stroke="black" points="1171.57,-160 1084.48,-160 1084.48,-117 1171.57,-117 1171.57,-160"/>
<text text-anchor="middle" x="1128.03" y="-144.8" font-family="Times,serif" font-size="14.00">料金割合</text>
<text text-anchor="middle" x="1128.03" y="-123.8" font-family="Times,serif" font-size="14.00">AmountRate</text>
</g>
<!-- warikan.domain.model.amount.rate.PaymentTypeAmountRates&#45;&gt;warikan.domain.model.amount.rate.AmountRate -->
<g id="edge15" class="edge">
<title>warikan.domain.model.amount.rate.PaymentTypeAmountRates&#45;&gt;warikan.domain.model.amount.rate.AmountRate</title>
<path fill="none" stroke="black" d="M1291.32,-285C1279.68,-281.87 1267.57,-279.02 1256.03,-277 1242.75,-274.68 1144.5,-278.58 1135.03,-269 1109.83,-243.5 1113.27,-199.62 1119.47,-170.09"/>
<polygon fill="black" stroke="black" points="1122.89,-170.83 1121.73,-160.3 1116.07,-169.25 1122.89,-170.83"/>
</g>
<!-- warikan.domain.model.amount.rate.PaymentTypeAmountRate -->
<g id="node9" class="node">
<title>warikan.domain.model.amount.rate.PaymentTypeAmountRate</title>
<polygon fill="#eedd82" stroke="black" points="1440.35,-239 1275.7,-239 1275.7,-196 1440.35,-196 1440.35,-239"/>
<text text-anchor="middle" x="1358.03" y="-223.8" font-family="Times,serif" font-size="14.00">支払区分料金割合</text>
<text text-anchor="middle" x="1358.03" y="-202.8" font-family="Times,serif" font-size="14.00">PaymentTypeAmountRate</text>
</g>
<!-- warikan.domain.model.amount.rate.PaymentTypeAmountRates&#45;&gt;warikan.domain.model.amount.rate.PaymentTypeAmountRate -->
<g id="edge16" class="edge">
<title>warikan.domain.model.amount.rate.PaymentTypeAmountRates&#45;&gt;warikan.domain.model.amount.rate.PaymentTypeAmountRate</title>
<path fill="none" stroke="black" d="M1355.74,-284.88C1356.1,-274.34 1356.55,-261.29 1356.96,-249.56"/>
<polygon fill="black" stroke="black" points="1360.46,-249.39 1357.31,-239.27 1353.47,-249.14 1360.46,-249.39"/>
</g>
<!-- warikan.domain.model.amount.rate.AmountRates -->
<g id="node7" class="node">
<title>warikan.domain.model.amount.rate.AmountRates</title>
<polygon fill="#eedd82" stroke="black" points="1257.61,-239 1144.45,-239 1144.45,-196 1257.61,-196 1257.61,-239"/>
<text text-anchor="middle" x="1201.03" y="-223.8" font-family="Times,serif" font-size="14.00">料金割合リスト</text>
<text text-anchor="middle" x="1201.03" y="-202.8" font-family="Times,serif" font-size="14.00">AmountRates</text>
</g>
<!-- warikan.domain.model.amount.rate.AmountRates&#45;&gt;warikan.domain.model.amount.rate.AmountRate -->
<g id="edge20" class="edge">
<title>warikan.domain.model.amount.rate.AmountRates&#45;&gt;warikan.domain.model.amount.rate.AmountRate</title>
<path fill="none" stroke="black" d="M1181.46,-195.87C1173.2,-187.15 1163.45,-176.86 1154.55,-167.48"/>
<polygon fill="black" stroke="black" points="1157.06,-165.04 1147.64,-160.19 1151.98,-169.86 1157.06,-165.04"/>
</g>
<!-- warikan.domain.model.amount.rate.MemberAmountRates -->
<g id="node8" class="node">
<title>warikan.domain.model.amount.rate.MemberAmountRates</title>
<polygon fill="#eedd82" stroke="black" points="1285.61,-409 1130.45,-409 1130.45,-366 1285.61,-366 1285.61,-409"/>
<text text-anchor="middle" x="1208.03" y="-393.8" font-family="Times,serif" font-size="14.00">参加者料金割合リスト</text>
<text text-anchor="middle" x="1208.03" y="-372.8" font-family="Times,serif" font-size="14.00">MemberAmountRates</text>
</g>
<!-- warikan.domain.model.amount.rate.MemberAmountRates&#45;&gt;warikan.domain.model.amount.types.MemberPaymentTypes -->
<g id="edge24" class="edge">
<title>warikan.domain.model.amount.rate.MemberAmountRates&#45;&gt;warikan.domain.model.amount.types.MemberPaymentTypes</title>
<path fill="none" stroke="black" d="M1285.93,-382.1C1349.24,-377.87 1440.74,-370.28 1520.03,-358 1567.44,-350.66 1619.72,-339.44 1662.44,-329.43"/>
<polygon fill="black" stroke="black" points="1663.31,-332.82 1672.24,-327.12 1661.7,-326.01 1663.31,-332.82"/>
</g>
<!-- warikan.domain.model.amount.rate.MemberAmountRates&#45;&gt;warikan.domain.model.payment_type.PaymentType -->
<g id="edge26" class="edge">
<title>warikan.domain.model.amount.rate.MemberAmountRates&#45;&gt;warikan.domain.model.payment_type.PaymentType</title>
<path fill="none" stroke="black" d="M1285.88,-385.47C1346.25,-383.2 1423.74,-376.59 1449.03,-358 1515.7,-308.97 1474.56,-253.6 1525.03,-188 1530.9,-180.36 1538.22,-173.18 1545.7,-166.81"/>
<polygon fill="black" stroke="black" points="1548.25,-169.25 1553.82,-160.23 1543.85,-163.81 1548.25,-169.25"/>
</g>
<!-- warikan.domain.model.amount.rate.MemberAmountRates&#45;&gt;warikan.domain.model.amount.rate.PaymentTypeAmountRates -->
<g id="edge23" class="edge">
<title>warikan.domain.model.amount.rate.MemberAmountRates&#45;&gt;warikan.domain.model.amount.rate.PaymentTypeAmountRates</title>
<path fill="none" stroke="black" d="M1246.26,-365.95C1265.08,-355.84 1287.93,-343.56 1307.82,-332.87"/>
<polygon fill="black" stroke="black" points="1309.57,-335.9 1316.72,-328.08 1306.26,-329.74 1309.57,-335.9"/>
</g>
<!-- warikan.domain.model.amount.rate.MemberAmountRates&#45;&gt;warikan.domain.model.amount.rate.AmountRate -->
<g id="edge21" class="edge">
<title>warikan.domain.model.amount.rate.MemberAmountRates&#45;&gt;warikan.domain.model.amount.rate.AmountRate</title>
<path fill="none" stroke="black" d="M1236.17,-365.75C1238.09,-363.34 1239.77,-360.75 1241.03,-358 1256.01,-325.27 1265.69,-303.22 1241.03,-277 1221.04,-255.76 1130.01,-290.24 1110.03,-269 1097.69,-255.89 1106.84,-205.72 1110.03,-188 1111.1,-182 1112.88,-175.77 1114.9,-169.85"/>
<polygon fill="black" stroke="black" points="1118.25,-170.88 1118.46,-160.29 1111.69,-168.44 1118.25,-170.88"/>
</g>
<!-- warikan.domain.model.amount.rate.MemberAmountRate -->
<g id="node10" class="node">
<title>warikan.domain.model.amount.rate.MemberAmountRate</title>
<polygon fill="#eedd82" stroke="black" points="1232.5,-328 1097.55,-328 1097.55,-285 1232.5,-285 1232.5,-328"/>
<text text-anchor="middle" x="1165.03" y="-312.8" font-family="Times,serif" font-size="14.00">参加者支払割合</text>
<text text-anchor="middle" x="1165.03" y="-291.8" font-family="Times,serif" font-size="14.00">MemberAmountRate</text>
</g>
<!-- warikan.domain.model.amount.rate.MemberAmountRates&#45;&gt;warikan.domain.model.amount.rate.MemberAmountRate -->
<g id="edge22" class="edge">
<title>warikan.domain.model.amount.rate.MemberAmountRates&#45;&gt;warikan.domain.model.amount.rate.MemberAmountRate</title>
<path fill="none" stroke="black" d="M1196.73,-365.74C1191.94,-356.94 1186.27,-346.53 1181.06,-336.96"/>
<polygon fill="black" stroke="black" points="1184.1,-335.23 1176.25,-328.12 1177.96,-338.57 1184.1,-335.23"/>
</g>
<!-- warikan.domain.model.amount.rate.MemberAmountRates&#45;&gt;warikan.domain.model.members.Member -->
<g id="edge25" class="edge">
<title>warikan.domain.model.amount.rate.MemberAmountRates&#45;&gt;warikan.domain.model.members.Member</title>
<path fill="none" stroke="black" d="M1130.26,-375.44C1115.88,-371.34 1101.49,-365.71 1089.03,-358 1044.5,-330.45 1008.61,-280.15 988.82,-248.07"/>
<polygon fill="black" stroke="black" points="991.6,-245.9 983.44,-239.14 985.6,-249.51 991.6,-245.9"/>
</g>
<!-- warikan.domain.model.amount.rate.PaymentTypeAmountRate&#45;&gt;warikan.domain.model.payment_type.PaymentType -->
<g id="edge28" class="edge">
<title>warikan.domain.model.amount.rate.PaymentTypeAmountRate&#45;&gt;warikan.domain.model.payment_type.PaymentType</title>
<path fill="none" stroke="black" d="M1418.56,-195.97C1452.87,-184.33 1495.5,-169.87 1529.03,-158.49"/>
<polygon fill="black" stroke="black" points="1530.33,-161.75 1538.68,-155.22 1528.08,-155.12 1530.33,-161.75"/>
</g>
<!-- warikan.domain.model.amount.rate.PaymentTypeAmountRate&#45;&gt;warikan.domain.model.amount.rate.AmountRate -->
<g id="edge27" class="edge">
<title>warikan.domain.model.amount.rate.PaymentTypeAmountRate&#45;&gt;warikan.domain.model.amount.rate.AmountRate</title>
<path fill="none" stroke="black" d="M1296.69,-195.97C1260.84,-183.96 1216.02,-168.96 1181.59,-157.43"/>
<polygon fill="black" stroke="black" points="1182.32,-153.98 1171.72,-154.13 1180.09,-160.62 1182.32,-153.98"/>
</g>
<!-- warikan.domain.model.amount.rate.MemberAmountRate&#45;&gt;warikan.domain.model.amount.rate.AmountRate -->
<g id="edge29" class="edge">
<title>warikan.domain.model.amount.rate.MemberAmountRate&#45;&gt;warikan.domain.model.amount.rate.AmountRate</title>
<path fill="none" stroke="black" d="M1114.7,-284.93C1108.86,-280.52 1103.69,-275.26 1100.03,-269 1081.84,-237.93 1090.71,-222.77 1100.03,-188 1101.74,-181.59 1104.54,-175.15 1107.71,-169.15"/>
<polygon fill="black" stroke="black" points="1110.93,-170.57 1112.9,-160.16 1104.87,-167.07 1110.93,-170.57"/>
</g>
<!-- warikan.domain.model.amount.rate.MemberAmountRate&#45;&gt;warikan.domain.model.members.Member -->
<g id="edge30" class="edge">
<title>warikan.domain.model.amount.rate.MemberAmountRate&#45;&gt;warikan.domain.model.members.Member</title>
<path fill="none" stroke="black" d="M1110.09,-284.92C1097.49,-279.93 1084.22,-274.46 1072.03,-269 1052.37,-260.2 1031.02,-249.57 1013.11,-240.34"/>
<polygon fill="black" stroke="black" points="1014.57,-237.15 1004.08,-235.65 1011.35,-243.37 1014.57,-237.15"/>
</g>
<!-- warikan.domain.model.members.MemberName -->
<g id="node13" class="node">
<title>warikan.domain.model.members.MemberName</title>
<polygon fill="#eedd82" stroke="black" points="1006.38,-160 909.67,-160 909.67,-117 1006.38,-117 1006.38,-160"/>
<text text-anchor="middle" x="958.03" y="-144.8" font-family="Times,serif" font-size="14.00">参加者名</text>
<text text-anchor="middle" x="958.03" y="-123.8" font-family="Times,serif" font-size="14.00">MemberName</text>
</g>
<!-- warikan.domain.model.members.Member&#45;&gt;warikan.domain.model.members.MemberName -->
<g id="edge55" class="edge">
<title>warikan.domain.model.members.Member&#45;&gt;warikan.domain.model.members.MemberName</title>
<path fill="none" stroke="black" d="M968.27,-195.87C966.85,-188.01 965.19,-178.88 963.62,-170.29"/>
<polygon fill="black" stroke="black" points="967.02,-169.4 961.79,-160.19 960.13,-170.66 967.02,-169.4"/>
</g>
<!-- warikan.domain.model.members.SecretaryType -->
<g id="node14" class="node">
<title>warikan.domain.model.members.SecretaryType</title>
<polygon fill="#eedd82" stroke="black" points="891.17,-160 794.88,-160 794.88,-117 891.17,-117 891.17,-160"/>
<text text-anchor="middle" x="843.03" y="-144.8" font-family="Times,serif" font-size="14.00">幹事区分</text>
<text text-anchor="middle" x="843.03" y="-123.8" font-family="Times,serif" font-size="14.00">SecretaryType</text>
</g>
<!-- warikan.domain.model.members.Member&#45;&gt;warikan.domain.model.members.SecretaryType -->
<g id="edge56" class="edge">
<title>warikan.domain.model.members.Member&#45;&gt;warikan.domain.model.members.SecretaryType</title>
<path fill="none" stroke="black" d="M940.14,-197.47C924,-187.83 904.17,-175.99 886.64,-165.53"/>
<polygon fill="black" stroke="black" points="888.1,-162.33 877.72,-160.21 884.51,-168.34 888.1,-162.33"/>
</g>
<!-- warikan.domain.model.members.Members -->
<g id="node12" class="node">
<title>warikan.domain.model.members.Members</title>
<polygon fill="#eedd82" stroke="black" points="952.73,-328 827.33,-328 827.33,-285 952.73,-285 952.73,-328"/>
<text text-anchor="middle" x="890.03" y="-312.8" font-family="Times,serif" font-size="14.00">メンバーグループ</text>
<text text-anchor="middle" x="890.03" y="-291.8" font-family="Times,serif" font-size="14.00">Members</text>
</g>
<!-- warikan.domain.model.members.Members&#45;&gt;warikan.domain.model.members.Member -->
<g id="edge57" class="edge">
<title>warikan.domain.model.members.Members&#45;&gt;warikan.domain.model.members.Member</title>
<path fill="none" stroke="black" d="M909.46,-284.88C920.21,-273.48 933.72,-259.15 945.43,-246.72"/>
<polygon fill="black" stroke="black" points="948.14,-248.95 952.45,-239.27 943.04,-244.15 948.14,-248.95"/>
</g>
<!-- warikan.domain.model.members.Members&#45;&gt;warikan.domain.model.members.SecretaryType -->
<g id="edge58" class="edge">
<title>warikan.domain.model.members.Members&#45;&gt;warikan.domain.model.members.SecretaryType</title>
<path fill="none" stroke="black" d="M884.17,-284.81C875.98,-255.91 861.07,-203.24 851.63,-169.87"/>
<polygon fill="black" stroke="black" points="854.98,-168.86 848.88,-160.19 848.24,-170.76 854.98,-168.86"/>
</g>
<!-- warikan.domain.model.PartyName -->
<g id="node15" class="node">
<title>warikan.domain.model.PartyName</title>
<polygon fill="#eedd82" stroke="black" points="113.51,-409 34.55,-409 34.55,-366 113.51,-366 113.51,-409"/>
<text text-anchor="middle" x="74.03" y="-393.8" font-family="Times,serif" font-size="14.00">飲み会名</text>
<text text-anchor="middle" x="74.03" y="-372.8" font-family="Times,serif" font-size="14.00">PartyName</text>
</g>
<!-- warikan.domain.model.Party -->
<g id="node16" class="node">
<title>warikan.domain.model.Party</title>
<polygon fill="#eedd82" stroke="black" points="321.03,-490 263.03,-490 263.03,-447 321.03,-447 321.03,-490"/>
<text text-anchor="middle" x="292.03" y="-474.8" font-family="Times,serif" font-size="14.00">飲み会</text>
<text text-anchor="middle" x="292.03" y="-453.8" font-family="Times,serif" font-size="14.00">Party</text>
</g>
<!-- warikan.domain.model.Party&#45;&gt;warikan.domain.model.amount.types.MemberPaymentTypes -->
<g id="edge10" class="edge">
<title>warikan.domain.model.Party&#45;&gt;warikan.domain.model.amount.types.MemberPaymentTypes</title>
<path fill="none" stroke="black" d="M321.07,-467.37C506.56,-466.51 1519.73,-460.8 1581.03,-439 1639.96,-418.04 1694.42,-367.84 1724.84,-335.88"/>
<polygon fill="black" stroke="black" points="1727.77,-337.87 1732.04,-328.17 1722.65,-333.09 1727.77,-337.87"/>
</g>
<!-- warikan.domain.model.Party&#45;&gt;warikan.domain.model.payment_type.PaymentTypes -->
<g id="edge12" class="edge">
<title>warikan.domain.model.Party&#45;&gt;warikan.domain.model.payment_type.PaymentTypes</title>
<path fill="none" stroke="black" d="M321.04,-467.56C495.69,-467.82 1401.39,-467.75 1452.03,-439 1525.66,-397.19 1565.91,-298.7 1582.24,-248.73"/>
<polygon fill="black" stroke="black" points="1585.6,-249.71 1585.28,-239.12 1578.93,-247.6 1585.6,-249.71"/>
</g>
<!-- warikan.domain.model.Party&#45;&gt;warikan.domain.model.amount.rate.PaymentTypeAmountRates -->
<g id="edge9" class="edge">
<title>warikan.domain.model.Party&#45;&gt;warikan.domain.model.amount.rate.PaymentTypeAmountRates</title>
<path fill="none" stroke="black" d="M321.31,-467.97C402.99,-468.86 640.03,-468.48 834.03,-439 964.15,-419.23 991.04,-386.69 1121.03,-366 1173.81,-357.6 1189.13,-370.8 1241.03,-358 1264.17,-352.29 1288.5,-342.15 1308.71,-332.44"/>
<polygon fill="black" stroke="black" points="1310.26,-335.58 1317.69,-328.03 1307.17,-329.3 1310.26,-335.58"/>
</g>
<!-- warikan.domain.model.Party&#45;&gt;warikan.domain.model.amount.rate.MemberAmountRates -->
<g id="edge8" class="edge">
<title>warikan.domain.model.Party&#45;&gt;warikan.domain.model.amount.rate.MemberAmountRates</title>
<path fill="none" stroke="black" d="M321.24,-467.14C438,-465.57 871.31,-458.54 1007.03,-439 1048.54,-433.02 1093.93,-422.02 1131.06,-411.8"/>
<polygon fill="black" stroke="black" points="1132.11,-415.14 1140.8,-409.09 1130.23,-408.4 1132.11,-415.14"/>
</g>
<!-- warikan.domain.model.Party&#45;&gt;warikan.domain.model.members.Members -->
<g id="edge11" class="edge">
<title>warikan.domain.model.Party&#45;&gt;warikan.domain.model.members.Members</title>
<path fill="none" stroke="black" d="M321.24,-467.17C420.65,-465.85 741.98,-460 783.03,-439 826.13,-416.95 858.01,-368.95 875.3,-337.45"/>
<polygon fill="black" stroke="black" points="878.59,-338.72 880.2,-328.25 872.41,-335.43 878.59,-338.72"/>
</g>
<!-- warikan.domain.model.Party&#45;&gt;warikan.domain.model.PartyName -->
<g id="edge3" class="edge">
<title>warikan.domain.model.Party&#45;&gt;warikan.domain.model.PartyName</title>
<path fill="none" stroke="black" d="M262.75,-462.13C239.52,-457.91 206.22,-451.94 177.03,-447 154.84,-443.25 147.19,-448.99 127.03,-439 116.02,-433.55 105.76,-425.01 97.26,-416.5"/>
<polygon fill="black" stroke="black" points="99.69,-413.96 90.27,-409.1 94.6,-418.77 99.69,-413.96"/>
</g>
<!-- warikan.domain.model.DifferenceAmountAdjustmentType -->
<g id="node17" class="node">
<title>warikan.domain.model.DifferenceAmountAdjustmentType</title>
<polygon fill="#eedd82" stroke="black" points="249.13,-328 34.92,-328 34.92,-285 249.13,-285 249.13,-328"/>
<text text-anchor="middle" x="142.03" y="-312.8" font-family="Times,serif" font-size="14.00">差額調整区分</text>
<text text-anchor="middle" x="142.03" y="-291.8" font-family="Times,serif" font-size="14.00">DifferenceAmountAdjustmentType</text>
</g>
<!-- warikan.domain.model.Party&#45;&gt;warikan.domain.model.DifferenceAmountAdjustmentType -->
<g id="edge2" class="edge">
<title>warikan.domain.model.Party&#45;&gt;warikan.domain.model.DifferenceAmountAdjustmentType</title>
<path fill="none" stroke="black" d="M262.86,-462.44C219.78,-454.9 143.96,-441.34 142.03,-439 118.98,-411.16 124.44,-367.45 131.96,-338.16"/>
<polygon fill="black" stroke="black" points="135.35,-339.02 134.66,-328.45 128.61,-337.14 135.35,-339.02"/>
</g>
<!-- warikan.domain.model.DifferenceAmountAdjuster -->
<g id="node19" class="node">
<title>warikan.domain.model.DifferenceAmountAdjuster</title>
<polygon fill="#eedd82" stroke="black" points="320.73,-409 151.33,-409 151.33,-366 320.73,-366 320.73,-409"/>
<text text-anchor="middle" x="236.03" y="-393.8" font-family="Times,serif" font-size="14.00">差額調整</text>
<text text-anchor="middle" x="236.03" y="-372.8" font-family="Times,serif" font-size="14.00">DifferenceAmountAdjuster</text>
</g>
<!-- warikan.domain.model.Party&#45;&gt;warikan.domain.model.DifferenceAmountAdjuster -->
<g id="edge1" class="edge">
<title>warikan.domain.model.Party&#45;&gt;warikan.domain.model.DifferenceAmountAdjuster</title>
<path fill="none" stroke="black" d="M277.31,-446.74C270.95,-437.76 263.39,-427.1 256.49,-417.37"/>
<polygon fill="black" stroke="black" points="259.28,-415.25 250.64,-409.12 253.57,-419.3 259.28,-415.25"/>
</g>
<!-- warikan.domain.model.amount.PaymentAmount -->
<g id="node21" class="node">
<title>warikan.domain.model.amount.PaymentAmount</title>
<polygon fill="#eedd82" stroke="black" points="549.41,-239 438.64,-239 438.64,-196 549.41,-196 549.41,-239"/>
<text text-anchor="middle" x="494.03" y="-223.8" font-family="Times,serif" font-size="14.00">支払金額</text>
<text text-anchor="middle" x="494.03" y="-202.8" font-family="Times,serif" font-size="14.00">PaymentAmount</text>
</g>
<!-- warikan.domain.model.Party&#45;&gt;warikan.domain.model.amount.PaymentAmount -->
<g id="edge7" class="edge">
<title>warikan.domain.model.Party&#45;&gt;warikan.domain.model.amount.PaymentAmount</title>
<path fill="none" stroke="black" d="M321.08,-462.33C336.43,-458.28 354.6,-451.2 367.03,-439 422.39,-384.65 388.35,-341.12 432.03,-277 439.73,-265.69 449.95,-254.93 459.87,-245.78"/>
<polygon fill="black" stroke="black" points="462.21,-248.39 467.35,-239.12 457.55,-243.16 462.21,-248.39"/>
</g>
<!-- warikan.domain.model.amount.BillingAmount -->
<g id="node22" class="node">
<title>warikan.domain.model.amount.BillingAmount</title>
<polygon fill="#eedd82" stroke="black" points="519.31,-160 418.74,-160 418.74,-117 519.31,-117 519.31,-160"/>
<text text-anchor="middle" x="469.03" y="-144.8" font-family="Times,serif" font-size="14.00">請求金額</text>
<text text-anchor="middle" x="469.03" y="-123.8" font-family="Times,serif" font-size="14.00">BillingAmount</text>
</g>
<!-- warikan.domain.model.Party&#45;&gt;warikan.domain.model.amount.BillingAmount -->
<g id="edge4" class="edge">
<title>warikan.domain.model.Party&#45;&gt;warikan.domain.model.amount.BillingAmount</title>
<path fill="none" stroke="black" d="M321.35,-448.79C324.6,-445.82 327.61,-442.54 330.03,-439 395.38,-343.39 333.2,-282.59 400.03,-188 405.86,-179.75 413.56,-172.42 421.69,-166.12"/>
<polygon fill="black" stroke="black" points="423.87,-168.86 429.93,-160.16 419.77,-163.19 423.87,-168.86"/>
</g>
<!-- warikan.domain.model.amount.Money -->
<g id="node23" class="node">
<title>warikan.domain.model.amount.Money</title>
<polygon fill="#eedd82" stroke="black" points="565.69,-81 510.36,-81 510.36,-38 565.69,-38 565.69,-81"/>
<text text-anchor="middle" x="538.03" y="-65.8" font-family="Times,serif" font-size="14.00">通貨</text>
<text text-anchor="middle" x="538.03" y="-44.8" font-family="Times,serif" font-size="14.00">Money</text>
</g>
<!-- warikan.domain.model.Party&#45;&gt;warikan.domain.model.amount.Money -->
<g id="edge6" class="edge">
<title>warikan.domain.model.Party&#45;&gt;warikan.domain.model.amount.Money</title>
<path fill="none" stroke="black" d="M262.87,-461.27C239.71,-456.58 206.44,-450.39 177.03,-447 160.34,-445.08 38.43,-450.33 26.03,-439 -17.58,-399.18 7.03,-366.55 7.03,-307.5 7.03,-307.5 7.03,-307.5 7.03,-216.5 7.03,-113.67 378.22,-73.74 499.91,-63.41"/>
<polygon fill="black" stroke="black" points="500.55,-66.87 510.22,-62.56 499.97,-59.89 500.55,-66.87"/>
</g>
<!-- warikan.domain.model.amount.MemberPaymentAmounts -->
<g id="node25" class="node">
<title>warikan.domain.model.amount.MemberPaymentAmounts</title>
<polygon fill="#eedd82" stroke="black" points="770.79,-409 607.27,-409 607.27,-366 770.79,-366 770.79,-409"/>
<text text-anchor="middle" x="689.03" y="-393.8" font-family="Times,serif" font-size="14.00">参加者支払金額リスト</text>
<text text-anchor="middle" x="689.03" y="-372.8" font-family="Times,serif" font-size="14.00">MemberPaymentAmounts</text>
</g>
<!-- warikan.domain.model.Party&#45;&gt;warikan.domain.model.amount.MemberPaymentAmounts -->
<g id="edge5" class="edge">
<title>warikan.domain.model.Party&#45;&gt;warikan.domain.model.amount.MemberPaymentAmounts</title>
<path fill="none" stroke="black" d="M321.22,-461.69C378.61,-450.27 508.26,-424.47 597.23,-406.77"/>
<polygon fill="black" stroke="black" points="597.93,-410.2 607.06,-404.81 596.57,-403.33 597.93,-410.2"/>
</g>
<!-- warikan.domain.model.Money -->
<g id="node18" class="node">
<title>warikan.domain.model.Money</title>
<polygon fill="#eedd82" stroke="black" points="167.69,-490 112.36,-490 112.36,-447 167.69,-447 167.69,-490"/>
<text text-anchor="middle" x="140.03" y="-474.8" font-family="Times,serif" font-size="14.00">通貨</text>
<text text-anchor="middle" x="140.03" y="-453.8" font-family="Times,serif" font-size="14.00">Money</text>
</g>
<!-- warikan.domain.model.DifferenceAmountAdjuster&#45;&gt;warikan.domain.model.members.Members -->
<g id="edge63" class="edge">
<title>warikan.domain.model.DifferenceAmountAdjuster&#45;&gt;warikan.domain.model.members.Members</title>
<path fill="none" stroke="black" d="M321.11,-374.63C348.49,-371.26 378.99,-367.97 407.03,-366 448.71,-363.07 742.35,-367.57 783.03,-358 805.02,-352.82 827.87,-342.77 846.78,-332.99"/>
<polygon fill="black" stroke="black" points="848.54,-336.02 855.72,-328.23 845.25,-329.84 848.54,-336.02"/>
</g>
<!-- warikan.domain.model.DifferenceAmountAdjuster&#45;&gt;warikan.domain.model.members.SecretaryType -->
<g id="edge64" class="edge">
<title>warikan.domain.model.DifferenceAmountAdjuster&#45;&gt;warikan.domain.model.members.SecretaryType</title>
<path fill="none" stroke="black" d="M280.54,-365.96C284.25,-363.51 287.81,-360.85 291.03,-358 359.49,-297.34 327.79,-233.7 407.03,-188 479.61,-146.14 700.94,-176.79 783.03,-160 783.63,-159.88 784.24,-159.75 784.85,-159.61"/>
<polygon fill="black" stroke="black" points="785.99,-162.94 794.85,-157.14 784.31,-156.14 785.99,-162.94"/>
</g>
<!-- warikan.domain.model.DifferenceAmountAdjuster&#45;&gt;warikan.domain.model.DifferenceAmountAdjustmentType -->
<g id="edge60" class="edge">
<title>warikan.domain.model.DifferenceAmountAdjuster&#45;&gt;warikan.domain.model.DifferenceAmountAdjustmentType</title>
<path fill="none" stroke="black" d="M211.33,-365.74C199.99,-356.22 186.41,-344.8 174.28,-334.61"/>
<polygon fill="black" stroke="black" points="176.47,-331.87 166.56,-328.12 171.96,-337.23 176.47,-331.87"/>
</g>
<!-- warikan.domain.model.DifferenceAmountAdjuster&#45;&gt;warikan.domain.model.amount.Money -->
<g id="edge62" class="edge">
<title>warikan.domain.model.DifferenceAmountAdjuster&#45;&gt;warikan.domain.model.amount.Money</title>
<path fill="none" stroke="black" d="M253.03,-365.78C254.82,-363.23 256.53,-360.6 258.03,-358 277.41,-324.31 274.29,-312.09 291.03,-277 330.42,-194.41 334.71,-160.96 410.03,-109 437.6,-89.97 473.63,-77.19 500.43,-69.55"/>
<polygon fill="black" stroke="black" points="501.5,-72.89 510.22,-66.87 499.65,-66.14 501.5,-72.89"/>
</g>
<!-- warikan.domain.model.DifferenceAmountAdjuster&#45;&gt;warikan.domain.model.amount.MemberPaymentAmounts -->
<g id="edge61" class="edge">
<title>warikan.domain.model.DifferenceAmountAdjuster&#45;&gt;warikan.domain.model.amount.MemberPaymentAmounts</title>
<path fill="none" stroke="black" d="M320.96,-387.5C412.98,-387.5 505,-387.5 597.02,-387.5"/>
<polygon fill="black" stroke="black" points="597.07,-391 607.07,-387.5 597.07,-384 597.07,-391"/>
</g>
<!-- warikan.domain.model.amount.PaymentAmounts -->
<g id="node20" class="node">
<title>warikan.domain.model.amount.PaymentAmounts</title>
<polygon fill="#eedd82" stroke="black" points="575.36,-328 458.69,-328 458.69,-285 575.36,-285 575.36,-328"/>
<text text-anchor="middle" x="517.03" y="-312.8" font-family="Times,serif" font-size="14.00">支払金額リスト</text>
<text text-anchor="middle" x="517.03" y="-291.8" font-family="Times,serif" font-size="14.00">PaymentAmounts</text>
</g>
<!-- warikan.domain.model.amount.PaymentAmounts&#45;&gt;warikan.domain.model.amount.PaymentAmount -->
<g id="edge14" class="edge">
<title>warikan.domain.model.amount.PaymentAmounts&#45;&gt;warikan.domain.model.amount.PaymentAmount</title>
<path fill="none" stroke="black" d="M511.58,-284.88C508.76,-274.23 505.27,-261.03 502.14,-249.21"/>
<polygon fill="black" stroke="black" points="505.46,-248.04 499.52,-239.27 498.69,-249.83 505.46,-248.04"/>
</g>
<!-- warikan.domain.model.amount.PaymentAmounts&#45;&gt;warikan.domain.model.amount.Money -->
<g id="edge13" class="edge">
<title>warikan.domain.model.amount.PaymentAmounts&#45;&gt;warikan.domain.model.amount.Money</title>
<path fill="none" stroke="black" d="M546.59,-284.92C551.24,-280.26 555.37,-274.91 558.03,-269 584.43,-210.15 564.64,-132.76 550,-90.77"/>
<polygon fill="black" stroke="black" points="553.21,-89.34 546.51,-81.13 546.62,-91.73 553.21,-89.34"/>
</g>
<!-- warikan.domain.model.amount.PaymentAmount&#45;&gt;warikan.domain.model.amount.rate.AmountRate -->
<g id="edge33" class="edge">
<title>warikan.domain.model.amount.PaymentAmount&#45;&gt;warikan.domain.model.amount.rate.AmountRate</title>
<path fill="none" stroke="black" d="M549.6,-211.05C665.29,-199.63 928.63,-173.13 1018.03,-160 1036.34,-157.31 1056.26,-153.78 1074.06,-150.41"/>
<polygon fill="black" stroke="black" points="1075.1,-153.78 1084.26,-148.45 1073.78,-146.9 1075.1,-153.78"/>
</g>
<!-- warikan.domain.model.amount.PaymentAmount&#45;&gt;warikan.domain.model.amount.BillingAmount -->
<g id="edge31" class="edge">
<title>warikan.domain.model.amount.PaymentAmount&#45;&gt;warikan.domain.model.amount.BillingAmount</title>
<path fill="none" stroke="black" d="M487.33,-195.87C484.72,-187.84 481.68,-178.48 478.84,-169.72"/>
<polygon fill="black" stroke="black" points="482.16,-168.62 475.74,-160.19 475.5,-170.78 482.16,-168.62"/>
</g>
<!-- warikan.domain.model.amount.PaymentAmount&#45;&gt;warikan.domain.model.amount.Money -->
<g id="edge32" class="edge">
<title>warikan.domain.model.amount.PaymentAmount&#45;&gt;warikan.domain.model.amount.Money</title>
<path fill="none" stroke="black" d="M509.48,-195.86C516.34,-185.6 523.8,-172.71 528.03,-160 535.41,-137.8 537.79,-111.39 538.39,-91.37"/>
<polygon fill="black" stroke="black" points="541.89,-91.3 538.56,-81.25 534.89,-91.19 541.89,-91.3"/>
</g>
<!-- warikan.domain.model.amount.BillingAmount&#45;&gt;warikan.domain.model.amount.Money -->
<g id="edge40" class="edge">
<title>warikan.domain.model.amount.BillingAmount&#45;&gt;warikan.domain.model.amount.Money</title>
<path fill="none" stroke="black" d="M487.52,-116.87C495.25,-108.23 504.36,-98.06 512.71,-88.76"/>
<polygon fill="black" stroke="black" points="515.42,-90.97 519.48,-81.19 510.2,-86.3 515.42,-90.97"/>
</g>
<!-- warikan.domain.model.amount.MemberPaymentAmount -->
<g id="node24" class="node">
<title>warikan.domain.model.amount.MemberPaymentAmount</title>
<polygon fill="#eedd82" stroke="black" points="751.34,-328 592.72,-328 592.72,-285 751.34,-285 751.34,-328"/>
<text text-anchor="middle" x="672.03" y="-312.8" font-family="Times,serif" font-size="14.00">参加者支払金額</text>
<text text-anchor="middle" x="672.03" y="-291.8" font-family="Times,serif" font-size="14.00">MemberPaymentAmount</text>
</g>
<!-- warikan.domain.model.amount.MemberPaymentAmount&#45;&gt;warikan.domain.model.members.Member -->
<g id="edge43" class="edge">
<title>warikan.domain.model.amount.MemberPaymentAmount&#45;&gt;warikan.domain.model.members.Member</title>
<path fill="none" stroke="black" d="M742.74,-284.99C801.12,-268.06 882,-244.61 930.45,-230.56"/>
<polygon fill="black" stroke="black" points="931.65,-233.85 940.28,-227.71 929.7,-227.13 931.65,-233.85"/>
</g>
<!-- warikan.domain.model.amount.MemberPaymentAmount&#45;&gt;warikan.domain.model.amount.PaymentAmount -->
<g id="edge42" class="edge">
<title>warikan.domain.model.amount.MemberPaymentAmount&#45;&gt;warikan.domain.model.amount.PaymentAmount</title>
<path fill="none" stroke="black" d="M629.84,-284.88C604.55,-272.52 572.21,-256.71 545.43,-243.63"/>
<polygon fill="black" stroke="black" points="546.74,-240.37 536.21,-239.12 543.66,-246.66 546.74,-240.37"/>
</g>
<!-- warikan.domain.model.amount.MemberPaymentAmount&#45;&gt;warikan.domain.model.amount.Money -->
<g id="edge41" class="edge">
<title>warikan.domain.model.amount.MemberPaymentAmount&#45;&gt;warikan.domain.model.amount.Money</title>
<path fill="none" stroke="black" d="M661.08,-284.74C642.06,-248.78 601.55,-172.63 566.03,-109 562.59,-102.84 558.85,-96.28 555.26,-90.03"/>
<polygon fill="black" stroke="black" points="558.18,-88.1 550.15,-81.19 552.12,-91.6 558.18,-88.1"/>
</g>
<!-- warikan.domain.model.amount.MemberPaymentAmounts&#45;&gt;warikan.domain.model.amount.rate.AmountRate -->
<g id="edge49" class="edge">
<title>warikan.domain.model.amount.MemberPaymentAmounts&#45;&gt;warikan.domain.model.amount.rate.AmountRate</title>
<path fill="none" stroke="black" d="M770.87,-373.16C790.22,-370.41 810.82,-367.8 830.03,-366 850.84,-364.05 1001,-370.13 1018.03,-358 1084.17,-310.88 1042.55,-257.22 1085.03,-188 1089.25,-181.12 1094.48,-174.29 1099.82,-168.02"/>
<polygon fill="black" stroke="black" points="1102.55,-170.22 1106.58,-160.42 1097.32,-165.56 1102.55,-170.22"/>
</g>
<!-- warikan.domain.model.amount.MemberPaymentAmounts&#45;&gt;warikan.domain.model.amount.rate.MemberAmountRates -->
<g id="edge51" class="edge">
<title>warikan.domain.model.amount.MemberPaymentAmounts&#45;&gt;warikan.domain.model.amount.rate.MemberAmountRates</title>
<path fill="none" stroke="black" d="M770.88,-387.5C887.3,-387.5 1003.73,-387.5 1120.15,-387.5"/>
<polygon fill="black" stroke="black" points="1120.33,-391 1130.33,-387.5 1120.33,-384 1120.33,-391"/>
</g>
<!-- warikan.domain.model.amount.MemberPaymentAmounts&#45;&gt;warikan.domain.model.amount.rate.MemberAmountRate -->
<g id="edge50" class="edge">
<title>warikan.domain.model.amount.MemberPaymentAmounts&#45;&gt;warikan.domain.model.amount.rate.MemberAmountRate</title>
<path fill="none" stroke="black" d="M771.15,-381.34C868.27,-375.01 1020.1,-364.36 1046.03,-358 1070.05,-352.11 1095.44,-341.93 1116.57,-332.25"/>
<polygon fill="black" stroke="black" points="1118.07,-335.41 1125.65,-328 1115.11,-329.07 1118.07,-335.41"/>
</g>
<!-- warikan.domain.model.amount.MemberPaymentAmounts&#45;&gt;warikan.domain.model.members.Member -->
<g id="edge52" class="edge">
<title>warikan.domain.model.amount.MemberPaymentAmounts&#45;&gt;warikan.domain.model.members.Member</title>
<path fill="none" stroke="black" d="M770.88,-383.21C846.41,-379.33 948.83,-371.63 962.03,-358 989.57,-329.55 986.08,-280.74 979.92,-249.06"/>
<polygon fill="black" stroke="black" points="983.28,-248.07 977.77,-239.02 976.44,-249.53 983.28,-248.07"/>
</g>
<!-- warikan.domain.model.amount.MemberPaymentAmounts&#45;&gt;warikan.domain.model.members.Members -->
<g id="edge53" class="edge">
<title>warikan.domain.model.amount.MemberPaymentAmounts&#45;&gt;warikan.domain.model.members.Members</title>
<path fill="none" stroke="black" d="M771.05,-371.99C785.33,-368.24 799.82,-363.63 813.03,-358 827.6,-351.78 842.43,-342.81 855.14,-334.14"/>
<polygon fill="black" stroke="black" points="857.39,-336.84 863.57,-328.23 853.37,-331.11 857.39,-336.84"/>
</g>
<!-- warikan.domain.model.amount.MemberPaymentAmounts&#45;&gt;warikan.domain.model.members.SecretaryType -->
<g id="edge54" class="edge">
<title>warikan.domain.model.amount.MemberPaymentAmounts&#45;&gt;warikan.domain.model.members.SecretaryType</title>
<path fill="none" stroke="black" d="M765.61,-365.89C768.99,-363.54 772.16,-360.92 775.03,-358 801.51,-331.03 826.2,-223.4 837.12,-169.95"/>
<polygon fill="black" stroke="black" points="840.58,-170.51 839.12,-160.02 833.72,-169.13 840.58,-170.51"/>
</g>
<!-- warikan.domain.model.amount.MemberPaymentAmounts&#45;&gt;warikan.domain.model.amount.PaymentAmounts -->
<g id="edge48" class="edge">
<title>warikan.domain.model.amount.MemberPaymentAmounts&#45;&gt;warikan.domain.model.amount.PaymentAmounts</title>
<path fill="none" stroke="black" d="M607.07,-367.56C599.13,-364.75 591.32,-361.57 584.03,-358 571.31,-351.77 558.59,-342.99 547.7,-334.49"/>
<polygon fill="black" stroke="black" points="549.75,-331.65 539.76,-328.1 545.35,-337.1 549.75,-331.65"/>
</g>
<!-- warikan.domain.model.amount.MemberPaymentAmounts&#45;&gt;warikan.domain.model.amount.PaymentAmount -->
<g id="edge47" class="edge">
<title>warikan.domain.model.amount.MemberPaymentAmounts&#45;&gt;warikan.domain.model.amount.PaymentAmount</title>
<path fill="none" stroke="black" d="M607,-382.02C542.04,-377.62 460.52,-369.82 450.03,-358 426.12,-331.08 438.62,-311.14 450.03,-277 453.63,-266.2 460.1,-255.8 466.99,-246.84"/>
<polygon fill="black" stroke="black" points="469.75,-249 473.36,-239.04 464.33,-244.57 469.75,-249"/>
</g>
<!-- warikan.domain.model.amount.MemberPaymentAmounts&#45;&gt;warikan.domain.model.amount.BillingAmount -->
<g id="edge44" class="edge">
<title>warikan.domain.model.amount.MemberPaymentAmounts&#45;&gt;warikan.domain.model.amount.BillingAmount</title>
<path fill="none" stroke="black" d="M607.09,-382.74C536.4,-378.65 443.83,-370.89 432.03,-358 381,-302.27 404.93,-259.27 430.03,-188 432.49,-180.99 436.45,-174.25 440.91,-168.14"/>
<polygon fill="black" stroke="black" points="443.73,-170.23 447.23,-160.23 438.26,-165.86 443.73,-170.23"/>
</g>
<!-- warikan.domain.model.amount.MemberPaymentAmounts&#45;&gt;warikan.domain.model.amount.Money -->
<g id="edge46" class="edge">
<title>warikan.domain.model.amount.MemberPaymentAmounts&#45;&gt;warikan.domain.model.amount.Money</title>
<path fill="none" stroke="black" d="M753.29,-365.75C755.82,-363.43 758.09,-360.86 760.03,-358 780.19,-328.18 774.01,-310.17 760.03,-277 722.27,-187.43 627.34,-116.51 574.67,-82.49"/>
<polygon fill="black" stroke="black" points="576.29,-79.37 565.97,-76.96 572.53,-85.28 576.29,-79.37"/>
</g>
<!-- warikan.domain.model.amount.MemberPaymentAmounts&#45;&gt;warikan.domain.model.amount.MemberPaymentAmount -->
<g id="edge45" class="edge">
<title>warikan.domain.model.amount.MemberPaymentAmounts&#45;&gt;warikan.domain.model.amount.MemberPaymentAmount</title>
<path fill="none" stroke="black" d="M684.56,-365.74C682.74,-357.31 680.61,-347.39 678.62,-338.15"/>
<polygon fill="black" stroke="black" points="681.99,-337.16 676.46,-328.12 675.15,-338.63 681.99,-337.16"/>
</g>
</g>
</svg>
